<svg xmlns="http://www.w3.org/2000/svg" viewBox="0 0 62.24 58.34"><defs><style>.cls-1,.cls-2{fill:#f2f2f2;}.cls-2{font-size:20.85px;font-family:UniSansHeavyCAPS, Uni Sans;}</style></defs><title>key-icon</title><g id="Layer_2" data-name="Layer 2"><g id="What_I_do" data-name="What I do"><g id="Slider"><g id="Key_icon" data-name="Key icon"><path class="cls-1" d="M59.21,11C59,4.85,54.81,0,49.64,0h-.13a7.25,7.25,0,0,1,7.25,7l.84,26.91a7.24,7.24,0,0,1-7.25,7.48H11.78a7.25,7.25,0,0,1-7.25-7.25V7.26A7.25,7.25,0,0,1,11,.05C6.06.54,2.21,5.39,2.21,11.31L0,47c0,6.24,4.29,11.3,9.57,11.3H52.66c5.41,0,9.74-5.28,9.57-11.66Z"/><text class="cls-2" transform="translate(16.73 28.92)">&lt;/&gt;</text></g></g></g></g></svg>