<svg xmlns="http://www.w3.org/2000/svg" viewBox="0 0 62.24 62.24"><defs><style>.cls-1{fill:#f2f2f2;}</style></defs><title>photo-icon</title><g id="Layer_2" data-name="Layer 2"><g id="What_I_do" data-name="What I do"><g id="Slider"><g id="Photo_Icon" data-name="Photo Icon"><path class="cls-1" d="M57.53,47.58a31.09,31.09,0,0,0,2.07-29H40.87Z"/><path class="cls-1" d="M25.13,16.42H58.55A31.1,31.1,0,0,0,34.5.19Z"/><path class="cls-1" d="M46.83,33.3,30.14,62.21c.32,0,.65,0,1,0A31.09,31.09,0,0,0,56.18,49.57Z"/><path class="cls-1" d="M15.41,28.94,32.1,0l-1,0A31.09,31.09,0,0,0,6.06,12.67Z"/><path class="cls-1" d="M37.11,45.81H3.69a31.11,31.11,0,0,0,24,16.24Z"/><path class="cls-1" d="M4.71,14.66a31.09,31.09,0,0,0-2.07,29H21.37Z"/></g></g></g></g></svg>