<svg xmlns="http://www.w3.org/2000/svg" viewBox="0 0 428 38.72"><defs><style>.cls-1{font-size:41.76px;}.cls-1,.cls-2,.cls-3{fill:#aaff17;}.cls-1,.cls-3{font-family:Digital-7, Digital-7;}.cls-3{font-size:16.7px;}.cls-4{letter-spacing:0em;}</style></defs><title>Viewfinder UI</title><g id="Layer_2" data-name="Layer 2"><g id="Photography"><g id="Viewfinder_UI" data-name="Viewfinder UI"><text class="cls-1" transform="translate(0 34.17)">125</text><text class="cls-1" transform="translate(74.15 34.17)">2.8</text><text class="cls-1" transform="translate(302.63 34.17)">100</text><text class="cls-1" transform="translate(376.79 34.17)">3</text><circle class="cls-2" cx="414.08" cy="20.46" r="13.92"/><text class="cls-3" transform="translate(148.31 14.68)">-<tspan x="6.68" y="2.78">2</tspan></text><text class="cls-3" transform="translate(260.22 14.68)">+<tspan class="cls-4" x="6.68" y="2.78">2</tspan></text><rect class="cls-2" x="167.75" y="11.41" width="3.48" height="6.26"/><rect class="cls-2" x="176.11" y="11.41" width="3.48" height="6.26"/><text class="cls-3" transform="translate(184.46 17.46)">1</text><rect class="cls-2" x="192.06" y="11.41" width="3.48" height="6.26"/><rect class="cls-2" x="200.41" y="11.41" width="3.48" height="6.26"/><text class="cls-3" transform="translate(241.48 17.46)">1</text><rect class="cls-2" x="224.77" y="11.41" width="3.48" height="6.26"/><rect class="cls-2" x="233.13" y="11.41" width="3.48" height="6.26"/><rect class="cls-2" x="249.08" y="11.41" width="3.48" height="6.26"/><rect class="cls-2" x="257.43" y="11.41" width="3.48" height="6.26"/><polygon class="cls-2" points="219.9 6.54 208.77 6.54 208.77 12.8 214.33 17.67 219.9 12.8 219.9 6.54"/><polygon class="cls-2" points="217.12 34.38 211.55 34.38 211.55 26.55 214.33 20.46 217.12 26.55 217.12 34.38"/></g></g></g></svg>