<svg xmlns="http://www.w3.org/2000/svg" viewBox="0 0 1280.5 1280.5"><defs><style>.cls-1{opacity:0.05;}.cls-2{fill:none;stroke:#000;stroke-miterlimit:10;stroke-width:0.5px;}</style></defs><title>white-Grid</title><g id="Layer_2" data-name="Layer 2"><g id="Header"><g class="cls-1"><rect class="cls-2" x="0.25" y="0.25" width="1280" height="1280"/><line class="cls-2" x1="0.25" y1="1255.15" x2="1280.25" y2="1255.15"/><line class="cls-2" x1="0.25" y1="1230.05" x2="1280.25" y2="1230.05"/><line class="cls-2" x1="0.25" y1="1204.96" x2="1280.25" y2="1204.96"/><line class="cls-2" x1="0.25" y1="1179.86" x2="1280.25" y2="1179.86"/><line class="cls-2" x1="0.25" y1="1154.76" x2="1280.25" y2="1154.76"/><line class="cls-2" x1="0.25" y1="1129.66" x2="1280.25" y2="1129.66"/><line class="cls-2" x1="0.25" y1="1104.56" x2="1280.25" y2="1104.56"/><line class="cls-2" x1="0.25" y1="1079.47" x2="1280.25" y2="1079.47"/><line class="cls-2" x1="0.25" y1="1054.37" x2="1280.25" y2="1054.37"/><line class="cls-2" x1="0.25" y1="1029.27" x2="1280.25" y2="1029.27"/><line class="cls-2" x1="0.25" y1="1004.17" x2="1280.25" y2="1004.17"/><line class="cls-2" x1="0.25" y1="979.07" x2="1280.25" y2="979.07"/><line class="cls-2" x1="0.25" y1="953.98" x2="1280.25" y2="953.98"/><line class="cls-2" x1="0.25" y1="928.88" x2="1280.25" y2="928.88"/><line class="cls-2" x1="0.25" y1="903.78" x2="1280.25" y2="903.78"/><line class="cls-2" x1="0.25" y1="878.68" x2="1280.25" y2="878.68"/><line class="cls-2" x1="0.25" y1="853.58" x2="1280.25" y2="853.58"/><line class="cls-2" x1="0.25" y1="828.49" x2="1280.25" y2="828.49"/><line class="cls-2" x1="0.25" y1="803.39" x2="1280.25" y2="803.39"/><line class="cls-2" x1="0.25" y1="778.29" x2="1280.25" y2="778.29"/><line class="cls-2" x1="0.25" y1="753.19" x2="1280.25" y2="753.19"/><line class="cls-2" x1="0.25" y1="728.09" x2="1280.25" y2="728.09"/><line class="cls-2" x1="0.25" y1="703" x2="1280.25" y2="703"/><line class="cls-2" x1="0.25" y1="677.9" x2="1280.25" y2="677.9"/><line class="cls-2" x1="0.25" y1="652.8" x2="1280.25" y2="652.8"/><line class="cls-2" x1="0.25" y1="627.7" x2="1280.25" y2="627.7"/><line class="cls-2" x1="0.25" y1="602.6" x2="1280.25" y2="602.6"/><line class="cls-2" x1="0.25" y1="577.5" x2="1280.25" y2="577.5"/><line class="cls-2" x1="0.25" y1="552.41" x2="1280.25" y2="552.41"/><line class="cls-2" x1="0.25" y1="527.31" x2="1280.25" y2="527.31"/><line class="cls-2" x1="0.25" y1="502.21" x2="1280.25" y2="502.21"/><line class="cls-2" x1="0.25" y1="477.11" x2="1280.25" y2="477.11"/><line class="cls-2" x1="0.25" y1="452.01" x2="1280.25" y2="452.01"/><line class="cls-2" x1="0.25" y1="426.92" x2="1280.25" y2="426.92"/><line class="cls-2" x1="0.25" y1="401.82" x2="1280.25" y2="401.82"/><line class="cls-2" x1="0.25" y1="376.72" x2="1280.25" y2="376.72"/><line class="cls-2" x1="0.25" y1="351.62" x2="1280.25" y2="351.62"/><line class="cls-2" x1="0.25" y1="326.52" x2="1280.25" y2="326.52"/><line class="cls-2" x1="0.25" y1="301.43" x2="1280.25" y2="301.43"/><line class="cls-2" x1="0.25" y1="276.33" x2="1280.25" y2="276.33"/><line class="cls-2" x1="0.25" y1="251.23" x2="1280.25" y2="251.23"/><line class="cls-2" x1="0.25" y1="226.13" x2="1280.25" y2="226.13"/><line class="cls-2" x1="0.25" y1="201.03" x2="1280.25" y2="201.03"/><line class="cls-2" x1="0.25" y1="175.94" x2="1280.25" y2="175.94"/><line class="cls-2" x1="0.25" y1="150.84" x2="1280.25" y2="150.84"/><line class="cls-2" x1="0.25" y1="125.74" x2="1280.25" y2="125.74"/><line class="cls-2" x1="0.25" y1="100.64" x2="1280.25" y2="100.64"/><line class="cls-2" x1="0.25" y1="75.54" x2="1280.25" y2="75.54"/><line class="cls-2" x1="0.25" y1="50.45" x2="1280.25" y2="50.45"/><line class="cls-2" x1="0.25" y1="25.35" x2="1280.25" y2="25.35"/><line class="cls-2" x1="1255.15" y1="0.25" x2="1255.15" y2="1280.25"/><line class="cls-2" x1="1230.05" y1="0.25" x2="1230.05" y2="1280.25"/><line class="cls-2" x1="1204.96" y1="0.25" x2="1204.96" y2="1280.25"/><line class="cls-2" x1="1179.86" y1="0.25" x2="1179.86" y2="1280.25"/><line class="cls-2" x1="1154.76" y1="0.25" x2="1154.76" y2="1280.25"/><line class="cls-2" x1="1129.66" y1="0.25" x2="1129.66" y2="1280.25"/><line class="cls-2" x1="1104.56" y1="0.25" x2="1104.56" y2="1280.25"/><line class="cls-2" x1="1079.47" y1="0.25" x2="1079.47" y2="1280.25"/><line class="cls-2" x1="1054.37" y1="0.25" x2="1054.37" y2="1280.25"/><line class="cls-2" x1="1029.27" y1="0.25" x2="1029.27" y2="1280.25"/><line class="cls-2" x1="1004.17" y1="0.25" x2="1004.17" y2="1280.25"/><line class="cls-2" x1="979.07" y1="0.25" x2="979.07" y2="1280.25"/><line class="cls-2" x1="953.98" y1="0.25" x2="953.98" y2="1280.25"/><line class="cls-2" x1="928.88" y1="0.25" x2="928.88" y2="1280.25"/><line class="cls-2" x1="903.78" y1="0.25" x2="903.78" y2="1280.25"/><line class="cls-2" x1="878.68" y1="0.25" x2="878.68" y2="1280.25"/><line class="cls-2" x1="853.58" y1="0.25" x2="853.58" y2="1280.25"/><line class="cls-2" x1="828.49" y1="0.25" x2="828.49" y2="1280.25"/><line class="cls-2" x1="803.39" y1="0.25" x2="803.39" y2="1280.25"/><line class="cls-2" x1="778.29" y1="0.25" x2="778.29" y2="1280.25"/><line class="cls-2" x1="753.19" y1="0.25" x2="753.19" y2="1280.25"/><line class="cls-2" x1="728.09" y1="0.25" x2="728.09" y2="1280.25"/><line class="cls-2" x1="703" y1="0.25" x2="703" y2="1280.25"/><line class="cls-2" x1="677.9" y1="0.25" x2="677.9" y2="1280.25"/><line class="cls-2" x1="652.8" y1="0.25" x2="652.8" y2="1280.25"/><line class="cls-2" x1="627.7" y1="0.25" x2="627.7" y2="1280.25"/><line class="cls-2" x1="602.6" y1="0.25" x2="602.6" y2="1280.25"/><line class="cls-2" x1="577.5" y1="0.25" x2="577.5" y2="1280.25"/><line class="cls-2" x1="552.41" y1="0.25" x2="552.41" y2="1280.25"/><line class="cls-2" x1="527.31" y1="0.25" x2="527.31" y2="1280.25"/><line class="cls-2" x1="502.21" y1="0.25" x2="502.21" y2="1280.25"/><line class="cls-2" x1="477.11" y1="0.25" x2="477.11" y2="1280.25"/><line class="cls-2" x1="452.01" y1="0.25" x2="452.01" y2="1280.25"/><line class="cls-2" x1="426.92" y1="0.25" x2="426.92" y2="1280.25"/><line class="cls-2" x1="401.82" y1="0.25" x2="401.82" y2="1280.25"/><line class="cls-2" x1="376.72" y1="0.25" x2="376.72" y2="1280.25"/><line class="cls-2" x1="351.62" y1="0.25" x2="351.62" y2="1280.25"/><line class="cls-2" x1="326.52" y1="0.25" x2="326.52" y2="1280.25"/><line class="cls-2" x1="301.43" y1="0.25" x2="301.43" y2="1280.25"/><line class="cls-2" x1="276.33" y1="0.25" x2="276.33" y2="1280.25"/><line class="cls-2" x1="251.23" y1="0.25" x2="251.23" y2="1280.25"/><line class="cls-2" x1="226.13" y1="0.25" x2="226.13" y2="1280.25"/><line class="cls-2" x1="201.03" y1="0.25" x2="201.03" y2="1280.25"/><line class="cls-2" x1="175.94" y1="0.25" x2="175.94" y2="1280.25"/><line class="cls-2" x1="150.84" y1="0.25" x2="150.84" y2="1280.25"/><line class="cls-2" x1="125.74" y1="0.25" x2="125.74" y2="1280.25"/><line class="cls-2" x1="100.64" y1="0.25" x2="100.64" y2="1280.25"/><line class="cls-2" x1="75.54" y1="0.25" x2="75.54" y2="1280.25"/><line class="cls-2" x1="50.45" y1="0.25" x2="50.45" y2="1280.25"/><line class="cls-2" x1="25.35" y1="0.25" x2="25.35" y2="1280.25"/></g></g></g></svg>