<svg xmlns="http://www.w3.org/2000/svg" viewBox="0 0 121.56 60.85"><defs><style>.cls-1{fill:#231f20;}.cls-2{fill:#f2f2f2;}</style></defs><title>white-Logo</title><g id="Layer_2" data-name="Layer 2"><g id="Header"><g id="Logo"><path class="cls-1" d="M31.08,34.43c-.73,0-8.4,9.07-8.4,9.59s1.81,1.84,2.19,1.84,4.84-2.45,4.84-2.45.88,1.49,1.23,1.49a43.48,43.48,0,0,0,4-1.87S36.3,45,36.77,45s4.84-3.41,4.84-3.41,1.43,1.26,1.81,1.26.81-.53.81-.53S46.07,44,46.57,44a13.79,13.79,0,0,0,2.68-1.28S51.09,45,51.55,45c1.52,0,5.6-2.18,5.6-2.18s1,.93,1.52.93a11.57,11.57,0,0,0,2.42-1.08s.84,1.4,1.31,1.4,3.5-2.39,3.5-2.39a9.72,9.72,0,0,0-1.4,2.22c0,.43,1.22,1.25,1.57,1.25a39.56,39.56,0,0,0,5.08-5.28c0-1.08-1.81-2.36-2.63-2.36s-4.81,2.36-4.81,2.36,0-.61-.2-.61-2.39,1.4-2.68,1.4-.42-.53-.42-.62,2.08-2.12,2.08-2.29A6.82,6.82,0,0,0,60.55,36c-.33,0-5.44,5.93-7.19,5.93s4.08-3.89,4.08-4.18c0,0-1.49-1.86-2.15-1.86S50.23,39,50.23,39s-2.35-2-3.19-2-3,2-3,2A7.91,7.91,0,0,0,42.24,38,31.14,31.14,0,0,0,38.64,40a9.63,9.63,0,0,0-2-1.23c-1.82,0,0-.83,0-1.3C36.64,36.82,32.54,34.43,31.08,34.43Z"/><path class="cls-1" d="M97.94,5.42c-4.63,0-32,44.34-31.79,49.7,0,0,4,2.41,4.92,2.37,2.33-.11,13.65-11.75,13.64-12.13s-2.47-1.72-3-1.72C81,43.64,72.85,53.92,71,54c-3.92.18,23.84-43.71,27.87-43.89,1.52-.07-14.31,25.68-14.28,26.26s3,2.32,3.44,2.3S104.44,9.87,104.35,8C104.32,7.27,99.76,5.42,97.94,5.42Z"/><path class="cls-1" d="M97.55,24.67C91.6,38.86,86,42.36,86,43.25a4.48,4.48,0,0,0,2,2.65c.39,0,5.41-4.78,6.15-4.78-.35,1-.45,1-.45,1.36A9,9,0,0,0,96.54,45c.41,0,2.13-1.5,2.13-1.5s2.31,2.45,2.87,2.45,4-3.55,4-3.55,2,1.9,2.69,1.9,2-1.18,2-1.18,1.43,2.54,2.17,2.54,5.15-5.17,6-5.17c-1.51,2.72.07,5.95,2.39,6.24.87,0,.46-1-.28-1.86.12-1.68.06-3.65,1.11-5.48a6.38,6.38,0,0,0-2.51-1.94c-.42,0-3.21,2.43-3.21,2.43s-2.08-2.08-2.7-2.08-2.85,2-2.85,2a6.29,6.29,0,0,0,.74-1.59c0-.38-1.87-1.4-2.23-1.4s-1.23.85-1.23.85-1.79-1.53-2.4-1.53-6.75,5-6.75,5c-.66,0,1.89-3.53,1.89-3.83a7.76,7.76,0,0,0-2.94-1.74A19.39,19.39,0,0,0,94.2,37.3s6.23-10.41,6.23-11.08S98.79,24.67,97.55,24.67Z"/><path class="cls-1" d="M7.85,28.54C6.07,37.17,2,42.32,2,43.74c0,1,2.7,2.41,3.29,2.41s7.2-9.07,7.2-9.07S8.29,57.9,8.29,58.31s3,2.54,3.79,2.54S34.21,16.66,43.55,4.57C45,3.11,41.39,2,40.8,2S30.34,14.88,14.27,49.3c0-1.63,3.09-15.92,3.09-16.77S15,30.72,14.3,30.72,10,34.52,10,34.52a36.58,36.58,0,0,0,1.63-4C11.67,30.11,10.13,28.54,7.85,28.54Z"/><path class="cls-2" d="M29.08,32.43c-.73,0-8.4,9.07-8.4,9.59s1.81,1.84,2.19,1.84,4.84-2.45,4.84-2.45.87,1.49,1.22,1.49a43.75,43.75,0,0,0,4-1.87S34.3,43,34.77,43s4.84-3.41,4.84-3.41,1.43,1.25,1.81,1.25.81-.52.81-.52S44.07,42,44.56,42a13.63,13.63,0,0,0,2.69-1.28S49.08,43,49.55,43c1.52,0,5.6-2.19,5.6-2.19s1,.94,1.52.94a11.57,11.57,0,0,0,2.42-1.08s.84,1.4,1.31,1.4,3.5-2.39,3.5-2.39a9.85,9.85,0,0,0-1.4,2.21c0,.44,1.22,1.26,1.57,1.26a39.56,39.56,0,0,0,5.08-5.28c0-1.08-1.81-2.36-2.63-2.36s-4.81,2.36-4.81,2.36,0-.61-.2-.61-2.39,1.4-2.69,1.4-.41-.53-.41-.63,2.07-2.11,2.07-2.28A6.69,6.69,0,0,0,58.54,34c-.32,0-5.43,5.93-7.18,5.93s4.08-3.89,4.08-4.18c0,0-1.5-1.86-2.16-1.86S48.23,37,48.23,37s-2.35-2-3.19-2-3,2-3,2A7.91,7.91,0,0,0,40.24,36,31.14,31.14,0,0,0,36.64,38a9.63,9.63,0,0,0-2-1.23c-1.83,0,0-.83,0-1.3C34.64,34.82,30.54,32.43,29.08,32.43Z"/><path class="cls-2" d="M95.93,3.42c-4.62,0-32,44.33-31.78,49.69,0,0,4,2.41,4.92,2.37,2.33-.1,13.65-11.74,13.63-12.12s-2.46-1.72-3-1.72C79,41.64,70.85,51.92,69,52,65.05,52.18,92.8,8.29,96.84,8.1,98.35,8,82.53,33.79,82.55,34.37s3.06,2.32,3.45,2.3S102.43,7.87,102.35,6C102.32,5.27,97.76,3.42,95.93,3.42Z"/><path class="cls-2" d="M95.55,22.67C89.6,36.86,84,40.36,84,41.25a4.44,4.44,0,0,0,2,2.65c.39,0,5.41-4.79,6.15-4.79-.35,1-.45,1-.45,1.36A8.87,8.87,0,0,0,94.54,43c.4,0,2.12-1.5,2.12-1.5s2.32,2.45,2.88,2.45,4-3.55,4-3.55,2,1.9,2.68,1.9,2-1.18,2-1.18,1.43,2.53,2.17,2.53,5.15-5.16,6-5.16c-1.5,2.71.08,5.95,2.39,6.24.88,0,.47-1-.27-1.86.11-1.68.06-3.65,1.11-5.49a6.36,6.36,0,0,0-2.51-1.93c-.42,0-3.21,2.43-3.21,2.43s-2.08-2.08-2.7-2.08-2.85,2-2.85,2a6.29,6.29,0,0,0,.74-1.59c0-.38-1.87-1.4-2.23-1.4s-1.23.85-1.23.85-1.79-1.53-2.4-1.53-6.75,5-6.75,5c-.66,0,1.89-3.53,1.89-3.83a7.84,7.84,0,0,0-2.94-1.74A19.39,19.39,0,0,0,92.2,35.3s6.22-10.42,6.22-11.08S96.79,22.67,95.55,22.67Z"/><path class="cls-2" d="M5.85,26.54C4.07,35.17,0,40.32,0,41.74c0,1,2.7,2.41,3.29,2.41s7.2-9.07,7.2-9.07S6.29,55.9,6.29,56.31s3,2.54,3.79,2.54S32.21,14.66,41.54,2.57C43,1.11,39.39,0,38.8,0S28.33,12.88,12.27,47.3c0-1.63,3.09-15.92,3.09-16.77S13,28.72,12.3,28.72,8,32.51,8,32.51a36.35,36.35,0,0,0,1.63-4C9.67,28.11,8.13,26.54,5.85,26.54Z"/></g></g></g></svg>